<?xml version="1.0" encoding="UTF-8"?>
<svg width="330px" height="190px" viewBox="0 0 66 38" version="1.1" xmlns="http://www.w3.org/2000/svg" xmlns:xlink="http://www.w3.org/1999/xlink">
    <title>Track Bike Vector</title>
    <desc>Pedal Press' simple bike logo</desc>
    <defs></defs>
    <g id="Page-1" stroke="none" stroke-width="1" fill="none" fill-rule="evenodd">
        <g id="track-bike">
            <path d="M13.86,13.3755807 C7.47684211,13.3755807 2.28336842,18.5471955 2.28336842,24.9032295 C2.28336842,31.2592635 7.47684211,36.4287819 13.86,36.4287819 C20.2433684,36.4287819 25.4368421,31.2592635 25.4368421,24.9032295 C25.4368421,18.5471955 20.2433684,13.3755807 13.86,13.3755807 Z M13.86,11.9983003 C21.0172632,11.9983003 26.8189474,17.7757507 26.8189474,24.9032295 C26.8189474,32.0286119 21.0172632,37.8060623 13.86,37.8060623 C6.70294737,37.8060623 0.901263158,32.0286119 0.901263158,24.9032295 C0.901263158,17.7757507 6.70294737,11.9983003 13.86,11.9983003 L13.86,11.9983003 Z" id="Fill-1" fill="#1A1918"></path>
            <path d="M52.3307368,13.3755807 C45.9473684,13.3755807 40.7545263,18.5471955 40.7545263,24.9032295 C40.7545263,31.2592635 45.9473684,36.4287819 52.3307368,36.4287819 C58.7145263,36.4287819 63.9075789,31.2592635 63.9075789,24.9032295 C63.9075789,18.5471955 58.7145263,13.3755807 52.3307368,13.3755807 Z M52.3307368,11.9983003 C59.488,11.9983003 65.2898947,17.7757507 65.2898947,24.9032295 C65.2898947,32.0286119 59.488,37.8060623 52.3307368,37.8060623 C45.1738947,37.8060623 39.3722105,32.0286119 39.3722105,24.9032295 C39.3722105,17.7757507 45.1738947,11.9983003 52.3307368,11.9983003 L52.3307368,11.9983003 Z" id="Fill-2" fill="#1A1918"></path>
            <path d="M29.6210526,25.970255 L24.5252632,7.97546742 L44.7595789,7.23756374 L45.3625263,9.11796034 L29.6210526,25.970255 Z M15.4503158,25.1484986 C15.4595789,25.0814164 15.4654737,25.012238 15.4654737,24.9430595 C15.4654737,24.3372238 15.1284211,23.8131445 14.6313684,23.5406232 L23.4296842,8.62532578 L28.6136842,26.353881 L15.4503158,25.1484986 Z M52.2168421,23.3435694 C52.0772632,23.3435694 51.9425263,23.3624363 51.8136842,23.3959773 C51.2448421,22.2576771 50.2797895,20.3039093 49.9707368,19.5345609 C49.5570526,18.5052691 47.3204211,11.6503116 46.9722105,10.5811898 L47.0755789,10.5455524 C47.1991579,10.5036261 47.2648421,10.3694618 47.2223158,10.245779 C47.1797895,10.1220963 47.0444211,10.0571105 46.9210526,10.0990368 L46.8875789,10.1116147 L45.4837895,5.6066289 C45.5886316,5.55631728 45.6414737,5.43473088 45.6023158,5.32152975 C45.5597895,5.19784703 45.4252632,5.13076487 45.3010526,5.17478754 L45.2882105,5.17898017 L44.9172632,4.34883853 L45.9033684,4.55637394 C45.9096842,4.55637394 45.9166316,4.55637394 45.9254737,4.55847025 C46.1795789,4.5878187 47.4166316,4.76390935 48.532,5.23767705 C49.0896842,5.47456091 49.6115789,5.78481586 49.968,6.15376771 C50.3242105,6.52691218 50.5229474,6.92521246 50.5269474,7.45348442 C50.5269474,7.4996034 50.5250526,7.55201133 50.5212632,7.60441926 C50.4747368,8.21444759 50.3103158,8.66934844 50.0665263,9.03620397 C49.7029474,9.58334278 49.1301053,9.96487252 48.388,10.2478754 C47.6492632,10.5287819 46.7593684,10.6964873 45.8524211,10.8327479 C45.8524211,10.8327479 45.6444211,11.0130312 45.7166316,11.4301983 C45.7890526,11.8494618 46.0181053,11.9270255 46.0181053,11.9270255 C47.2621053,11.7383569 48.5524211,11.4972805 49.6237895,10.8893484 C50.1583158,10.5874788 50.6376842,10.1828895 50.9934737,9.64832861 C51.3498947,9.11376771 51.5726316,8.45552408 51.6296842,7.68617564 C51.6353684,7.60651558 51.6385263,7.53104816 51.6385263,7.45348442 C51.6423158,6.55416431 51.2248421,5.80997167 50.6625263,5.28169972 C49.8166316,4.48300283 48.6602105,4.05325779 47.7107368,3.79121813 C46.7610526,3.53127479 46.0124211,3.45371105 45.9924211,3.45161473 L45.9357895,3.4474221 L44.1155789,3.08685552 C43.9338947,3.08685552 43.7625263,3.17490085 43.6593684,3.32583569 C43.5553684,3.47467422 43.5315789,3.66543909 43.5953684,3.83524079 L44.2370526,5.53954674 L44.2254737,5.54373938 C44.1016842,5.58566572 44.0362105,5.71983003 44.0787368,5.84351275 C44.1204211,5.96300283 44.2507368,6.02798867 44.3728421,5.99235127 L44.3943158,6.06152975 C44.3684211,6.08458924 44.3414737,6.10764873 44.3151579,6.13280453 L24.096,6.7596034 L22.6528421,1.99677054 C21.9738947,1.72424929 21.5633684,2.1498017 21.5633684,2.1498017 L23.1627368,7.63796034 L14.2082105,23.3833994 C14.096,23.3582436 13.98,23.3435694 13.86,23.3435694 C12.9734737,23.3435694 12.2547368,24.0605099 12.2547368,24.9430595 C12.2547368,25.8256091 12.9734737,26.5404533 13.86,26.5404533 C14.4383158,26.5404533 14.9431579,26.2364873 15.2258947,25.7794901 L29.6802105,27.7395467 L45.7818947,10.4407365 L45.7978947,10.4910482 C45.7061053,10.549745 45.6621053,10.6629462 45.6985263,10.7698584 C45.7414737,10.8914448 45.8764211,10.9585269 46.0002105,10.9145042 L46.0724211,10.8893484 L48.7212632,18.8008499 C48.7212632,18.8008499 50.3075789,22.0941643 51.2098947,23.697847 C50.8452632,23.9913314 50.6111579,24.4399433 50.6111579,24.9430595 C50.6111579,25.8256091 51.3301053,26.5404533 52.2168421,26.5404533 C53.1033684,26.5404533 53.8221053,25.8256091 53.8221053,24.9430595 C53.8221053,24.0605099 53.1033684,23.3435694 52.2168421,23.3435694 L52.2168421,23.3435694 Z" id="Fill-3" fill="#1A1918"></path>
            <path d="M29.3292632,24.2512748 C27.8267368,24.2512748 26.6037895,25.4692351 26.6037895,26.9660057 C26.6037895,28.4627762 27.8267368,29.6786402 29.3292632,29.6786402 C30.832,29.6786402 32.0543158,28.4627762 32.0543158,26.9660057 C32.0543158,25.4692351 30.832,24.2512748 29.3292632,24.2512748 Z M29.3292632,22.8698017 C31.6008421,22.8698017 33.4429474,24.7040793 33.4429474,26.9660057 C33.4429474,29.227932 31.6008421,31.0622096 29.3292632,31.0622096 C27.0572632,31.0622096 25.2155789,29.227932 25.2155789,26.9660057 C25.2155789,24.7040793 27.0572632,22.8698017 29.3292632,22.8698017 L29.3292632,22.8698017 Z" id="Fill-4" fill="#1A1918"></path>
            <path d="M29.2446905,25.1242206 C29.4295326,24.6336824 28.2895326,22.9147022 28.2895326,22.9147022 L28.8752168,22.5771951 C28.8752168,22.5771951 29.6453221,24.4806512 30.2617431,24.4806512 C30.8783747,24.4806512 31.95648,22.6379883 31.95648,22.6379883 L32.5421642,23.1285265 C32.5421642,23.1285265 31.1552168,24.5707928 31.216901,25.0927758 C31.2790063,25.6147588 33.404901,26.3212178 33.404901,26.3212178 L33.1583747,26.9962319 L31.9257431,26.7803112 L34.6375326,30.954079 L35.6545852,31.1679033 L35.7467957,31.813569 L35.3459536,32.2118693 L32.8503747,32.5179316 L32.3882694,31.998045 L32.5112168,31.383824 L33.1274273,31.1385549 L30.5082694,27.3022943 L30.4771115,28.7131158 L29.6762694,28.7131158 C29.6762694,28.7131158 30.0154273,26.5350421 29.6145852,26.2583282 C29.2143747,25.9837107 27.1185852,26.5958353 27.1185852,26.5958353 L26.9339536,25.7384416 C26.9339536,25.7384416 29.0600589,25.6147588 29.2446905,25.1242206 Z" id="Fill-5" fill="#1A1918" transform="translate(31.340375, 27.547563) rotate(-50.000000) translate(-31.340375, -27.547563) "></path>
            <path d="M13.9178947,23.5552975 L29.428,23.0165439" id="Fill-6" fill="#1A1918"></path>
            <polyline id="Fill-7" fill="#1A1918" points="13.5263158 23.4085552 29.0237999 22.8698017 29.0364211 23.2450425 13.539568 23.783796 13.5263158 23.4085552"></polyline>
            <path d="M28.2802105,30.7708215 L13.8743158,26.3203399" id="Fill-8" fill="#1A1918"></path>
            <polyline id="Fill-9" fill="#1A1918" transform="translate(21.077158, 28.546629) rotate(-0.300000) translate(-21.077158, -28.546629) " points="13.8187368 26.4985269 13.9298947 26.142153 28.3355789 30.5926346 28.2242105 30.9511048 13.8187368 26.4985269"></polyline>
            <path d="M20.8526728,2.21244369 C20.5762518,2.21873264 20.338357,2.17890261 20.2335149,1.98604142 L20.6324623,1.95459667 C20.6324623,1.95669298 20.6326728,1.95669298 20.6326728,1.95669298 C20.698357,1.95250035 20.854357,1.93992244 20.8581465,1.93992244 C20.8573044,1.93992244 20.8568834,1.93782613 20.8564623,1.93782613 C21.9471992,1.88751451 22.7947781,1.65691961 23.7467781,1.56468165 C23.4920413,1.75754284 23.3680413,1.8497808 22.937936,1.95250035 C22.9391992,1.96507825 21.5962518,2.19148052 20.8526728,2.21244369 Z M17.8697255,1.04307446 C18.0221465,1.57272222 19.0869886,1.96007655 19.853936,2.05651987 C20.0560413,2.14505801 20.0800413,2.37272749 20.3661465,2.40276722 C20.8724623,2.45810355 22.6716202,2.30474285 23.2964623,2.13873385 C23.7210939,2.02648015 24.0511992,1.81304001 24.4537255,1.69446215 C24.7827781,1.59801883 25.3501465,1.51106173 25.766357,1.54268249 C26.0010939,1.56165495 26.2347781,1.73082603 26.5389886,1.74347433 C26.8482518,1.7545416 27.1566728,1.69762423 27.442357,1.61382921 C27.6080413,1.56481703 27.7766728,1.50631862 27.9333044,1.44149606 C27.993936,1.41778048 28.0248834,1.3893218 28.0364623,1.35928208 C28.0606728,1.29920263 27.9991992,1.22805591 27.9467781,1.15374712 C27.9021465,1.09208664 27.8509886,1.03200719 27.7888834,0.976670858 C27.6606728,0.866946814 27.4926728,0.793428543 27.3090939,0.747104127 C26.8640413,0.634376111 26.3613044,0.637538187 25.8975149,0.641016471 C25.5975149,0.643071821 25.2989886,0.656668748 24.9991992,0.665522561 C24.2170939,0.689080029 23.3050939,0.716906299 22.5231992,0.715641469 C21.2594097,0.713269912 20.302357,0.614455031 19.1189886,0.518327915 C18.5053044,0.468209008 17.6804623,0.382042432 17.8697255,1.04307446 L17.8697255,1.04307446 Z" id="Fill-10" fill="#1A1918" transform="translate(22.942020, 1.449454) rotate(5.000000) translate(-22.942020, -1.449454) "></path>
            <path d="M46.0244211,11.9270255 C47.2671579,11.7383569 48.5494737,11.4972805 49.6067368,10.89983 L49.6749474,11.0193201 C48.5892632,11.6335411 47.2913684,11.8746176 46.0458947,12.0632861 L46.0244211,11.9270255" id="Fill-11" fill="#FFFFFF"></path>
            <path d="M45.5644211,10.7635694 C46.4698947,10.6294051 47.3553684,10.4596034 48.0854737,10.1828895 L48.1353684,10.3107649 C47.3875789,10.595864 46.4941053,10.7656657 45.5852632,10.9019263 L45.5644211,10.7635694" id="Fill-12" fill="#FFFFFF"></path>
        </g>
    </g>
</svg>
